<?xml version="1.0" encoding="UTF-8"?>
<svg id="Layer_1" xmlns="http://www.w3.org/2000/svg" version="1.1" viewBox="0 0 2048 728">
  <!-- Generator: Adobe Illustrator 30.2.1, SVG Export Plug-In . SVG Version: 2.1.1 Build 1)  -->
  <g>
    <path d="M728.12,609.69c-2.24,6.24-46.84,14.53-59.12,7.1l-20.16,5.29c1.3-9.33,3.44-17.12,6.96-26.32l-69.93,2.37-18.37-17.72,12.17-79.13-90.78,3.92-33.07,60.21-28.36,3.6,24.37,77.42c2.73,8.66,8.93,21.4,6.58,29.33l-13.58,4.04c-2.71.81-3.53,7.23-5.2,11.22l-23.77,9.53c-15.94,6.39-29.86,13.02-46.2,19.15-4.12-6.44-7.69-12.37-9.41-18.53l-49.05-176.25-19.19-64.69-38.54,41.73c-16.86,49.81-30.59,104-42.04,153.79-1.13,4.88-6.44,15.34-10.83,15.74l-73.03,6.56c-5.57.5-10.4.75-13.43.76-3.04.01-4.79-11.02-3.49-15.29l92.96-303.7,70.17-218.4,13.88-40.3c6.73-4.46,22.5,1.03,29.78-.78l29.85-7.43c11.44-2.85,38.25-14.65,41.65,7.17-3.17,15.48-12.48,39.79-18.39,56.07l-19.41,53.46-40.91,131.08,61.43-74.69,115.97-141.14c16.66-20.28,32.37-39.04,52.2-57.22,45.59-11.71,105.25-16.97,156.89-14.58-41.16,36.36-75.61,71.5-113.15,110.22-72.12,74.38-141.86,149.09-207.71,229.26l29.22,103.25,129.81-218.96c12.84-22.45,24.18-45.27,41.26-64.16,12.42-13.72,36.52-6.53,50.51-.09,6.26-2.44,13.73-6.23,18.75-7.18,36.72-6.94,17.68-1.19,48.11,6.37l-8.49,88.14-20.55,201.18c-2.65,26.02-2.93,49.71-2.28,75.01l28.28-75.02,52.66-139.11,49.78-127.85c16.56-9.36,90.43-43.8,89.33-3.22l-4.48,165.51,86.24-149.48c12.19-21.15,21.27-49.16,41.03-63.51,25.35-18.42,60.09-16.49,90.02-11.93l-32.13,134.91-50.29,203.92c-6.46,26.19-12.63,49.89-20.47,76.25-12.53,6.58-27.71,2.41-40.37,3.72-11.88,1.23-20.84,2.73-35.8,3.48,9.48-46.4,19.93-87.42,31.8-132.21,9.6-36.22,20.35-70.86,25.54-107.65-42.66,70.68-78.95,139.37-116.73,210.51-7.39,13.93-15,29.95-30.8,32.76-4.6-2.79-9.74-4.51-19.31-5.13l2.22-136.51c.39-24.15,2.79-46.84-.67-68.91l-79.96,223,.04.03ZM527.81,430.79l69.18-3.51,16.34-143.36c-14,16.08-22.59,31.03-31.73,47.86l-53.79,99.02h0Z"/>
    <path d="M1449.92,574.98c-2.04,6.17-7.16,17.01-12.3,18.41-24.86,6.79-47.75,7.89-73.09,3.49l74.71-214.08,70.7-192.29c5.33-14.5,15.94-16.1,28.59-19l32.77-7.53c15.32,12.98,21.12,27.22,22.16,46l9.92,180.17c24.07-62.01,41.21-124.93,61.91-188.7l23-70.85c26.11-8.66,51.61-11.34,80.72-9.33-6.5,15.7-11.53,27.24-16.23,40.76l-28.56,82.19-50.15,144.67-51.02,165.25c-22.91,6.8-44.86,7.26-68.02,7.23l-9.33.52c-2.26.12-5.22-7.92-5.32-10.34l-4.6-113.76c-1.27-31.4-5.91-60.62-10.39-91.08l-75.5,228.28v-.02Z"/>
    <path d="M1995.45,306.22c-7.13,71.91-36.43,146.13-81.75,202.82-33.61,42.02-86.78,62.35-140.16,50.79-37.29-8.08-66.4-39.55-71.04-78.82-13.25-112.19,39.84-267.49,153.45-311.54,56.87-22.05,101.04,1.99,97.12,5.99l-8.33,8.49c53.65,15.68,55.47,74.4,50.72,122.29h0ZM1867.55,427.45c13.98-24.4,24.11-49.76,34.5-76.04,10.68-27.02,32.58-102.02,5.97-119.21-17.27-11.16-44.09,11.16-56.4,26-36.88,44.42-55.18,87.14-69.49,143.58-5.13,20.24-14.24,75.42,5.57,86.13,26.72,14.45,66.77-37.6,79.87-60.45h-.01Z"/>
    <path d="M1264.32,492.04l52.99-2.83c18.29-.98,36.34-2.19,54.37,1.87-10.11,14.41-13.88,35.11-10.7,47.37.45,1.76-5.09,5.76-4.51,7.13l4.07,9.72c-51.24,8.79-110.73,14.95-166.35,18.71-8.13.55-18.15-2.65-23.81-7.66,10.67-52.7,24.93-101.78,41.2-152.71l60.3-188.76c2.86-8.94,3.29-14.45,9.66-20.65,5.68-5.53,12.28-11.96,20.8-13.46,26.55-4.7,153.46-19.9,165.04-5.1,1.98,2.54-1.06,9.53-2.67,13.17l-19.33,43.69-97.93,8.19-30.11,81.77,87.52-2.65c-.54,16.81-7.09,28.21-17.22,39.41l6.58,15.56c1.24,2.94-7.42,8.96-10.72,9.26l-91.2,8.39-27.98,89.57h0Z"/>
    <path d="M1099.93,552.83l-54.02-1.48c-2.11.69-7.29,3.96-8.35,2.21-1.06-1.76-2.22-8.13-1.5-10.35l38.2-117.28,69.78-209.94c9.71-9.99,31.04-10.99,44.55-11.44l44.36-1.5-17.22,49.27-52.38,166.01-38.98,129.29c-4.91,4.28-15.6,5.45-24.43,5.2h-.01Z"/>
  </g>
  <path d="M1304.31,77.43c0,39.41-31.95,71.36-71.36,71.36s-71.36-31.95-71.36-71.36,31.95-71.36,71.36-71.36c29.55,0,54.91,17.97,65.75,43.58,1.81,4.26,5.61,20.27-29.35,27.77-4.64.99,34.96-4.92,34.96,0Z"/>
</svg>