<?xml version="1.0" encoding="UTF-8"?>
<svg id="Layer_1" xmlns="http://www.w3.org/2000/svg" version="1.1" viewBox="0 0 2048 728">
  <!-- Generator: Adobe Illustrator 30.2.1, SVG Export Plug-In . SVG Version: 2.1.1 Build 1)  -->
  <defs>
    <style>
      .st0 {
        fill: #1a35b4;
      }
    </style>
  </defs>
  <g>
    <path class="st0" d="M787.68,339.58c-.01-25.87-20.67-40.48-43.28-40.86-31.69-.54-55.26,21.82-55.3,53.62l-.22,78.28-54.73.12-.14-173.11,53.02-.58,1.35,41.4c14.98-31.89,43.07-47.97,77.28-46.73,32.03,1.16,58.97,18.21,69.59,50.11,20.11-48.64,74.55-60.04,118.77-42.43,23.23,11.97,40.9,35.71,41,63.79l.6,184.18-54.28-.45-.39-168.17c-.06-26.63-22-41.05-46.83-40.41-20.81.54-50.5,11.6-50.77,36.75l-1.87,171.7-53.72.7-.09-167.89v-.02Z"/>
    <path class="st0" d="M370.82,402.32c19.41-35.46,74.78-39.57,108.73-43.66l46.08-5.55c2.1-23.1,2.59-42.92-21.77-52.93-26.18-10.76-74.9-4.42-79.18,30.27l-52.57-.42c2.03-28.71,19.77-53.46,47.16-65.86,36.68-16.61,81.33-17,117.89-.02,25.94,12.05,43.23,36.11,43.25,64.4l.16,178.15-52.25,1.35-1.03-36.73c-11.31,16.05-23.39,27.74-41.1,34.45-41.27,15.65-100.35,5.53-117.74-35.54-8.9-21.01-9.15-46.85,2.38-67.92h0ZM526.31,424.39c.76-11.83.82-22.85.86-34.65l-65.84,8.96c-11.32,1.54-23.65,5.66-32.99,11.71-12.37,8.01-14.72,22.66-11.34,35.96,2.97,11.7,13.25,20.12,26.83,23.28,36.78,8.56,80.36-12.19,82.49-45.27h-.01Z"/>
    <polygon class="st0" points="349.95 506.23 286.55 507.53 203.44 392.01 171.05 391.41 170.93 506.88 117.88 507.16 117.71 167.14 170.97 167.04 171.19 388.85 284.97 257.31 348.62 257.6 247.06 370.48 349.95 506.23"/>
    <path class="st0" d="M1906.58,441.7c-21.5,56.78-78.13,78.59-135.95,69.74-39.18-6-71.65-30.28-86.83-67.7-14.97-36.92-15.7-78.64-2.26-116.25,25.09-70.25,105.1-91.69,166.72-64.01,68.73,30.88,82.3,114.86,58.31,178.22h0ZM1852.37,429.14c12.69-30.86,12-65.94-1.27-95.36-11.78-26.12-36.82-39.45-64.39-36.04-20.94,2.59-38.28,13.7-47.54,33.4-14.74,31.38-15.66,68.4-1.7,100.24,10.51,23.98,33,38.4,58.03,37.86,24.56-.54,46.52-14.95,56.86-40.11h.01Z"/>
    <path class="st0" d="M1524.86,299.37c-32.48-.19-58.15,21.69-58.51,54.05l-.84,74.55-54.36.58v-169.69l52.78-.75,2.07,41.02c22.72-49.08,81.1-57.91,122.16-36.02,25.16,13.41,41.63,40.1,41.81,69.53l1.03,174.79-54.69.46-.55-160.12c-.1-29-22.59-48.22-50.9-48.39h0Z"/>
    <polygon class="st0" points="1088.68 507.55 1034.65 507.35 1034.73 258.87 1088.65 258.7 1088.68 507.55"/>
  </g>
  <g>
    <path class="st0" d="M1368.73,398.19c4.01-53.14-11.76-111.94-64.41-135.25-26.12-11.57-54.8-13.99-82.47-7.35-67.44,16.17-95.55,80.83-89.86,142.6h236.75-.01ZM1249.25,295.41c36.22-2.03,67.01,24.28,66.64,63.66l-129.86.34c.4-35.13,27.73-62.75,63.23-64h-.01Z"/>
    <path class="st0" d="M1313.42,441.61c-18.48,33.9-67.25,36.76-96.61,17.52-7.27-4.76-13.27-10.72-17.96-17.52h-56.89c14.98,38.06,48.78,63.37,89.03,69.77,27.2,4.32,53.59,3.17,78.99-7.4,27.38-11.4,49-33.67,55.53-62.37h-52.09Z"/>
  </g>
</svg>